<svg id="visual" viewBox="0 0 675 900" width="675" height="900" xmlns="http://www.w3.org/2000/svg" xmlns:xlink="http://www.w3.org/1999/xlink" version="1.1"><rect x="0" y="0" width="675" height="900" fill="#002233"></rect><path d="M0 452L18.8 426.7C37.7 401.3 75.3 350.7 112.8 341.7C150.3 332.7 187.7 365.3 225.2 419.3C262.7 473.3 300.3 548.7 337.8 575.8C375.3 603 412.7 582 450.2 520.2C487.7 458.3 525.3 355.7 562.8 333C600.3 310.3 637.7 367.7 656.3 396.3L675 425L675 901L656.3 901C637.7 901 600.3 901 562.8 901C525.3 901 487.7 901 450.2 901C412.7 901 375.3 901 337.8 901C300.3 901 262.7 901 225.2 901C187.7 901 150.3 901 112.8 901C75.3 901 37.7 901 18.8 901L0 901Z" fill="#0066FF" stroke-linecap="round" stroke-linejoin="miter"></path></svg>